<mxfile host="Electron" modified="2023-08-21T06:33:18.333Z" agent="Mozilla/5.0 (Windows NT 10.0; Win64; x64) AppleWebKit/537.36 (KHTML, like Gecko) draw.io/21.6.1 Chrome/112.0.5615.204 Electron/24.6.1 Safari/537.36" etag="-_o5j-4nJ88whncY6Eyh" version="21.6.1" type="device">
  <diagram name="第 1 页" id="E7FV8pIwXT6nveTNGaCU">
    <mxGraphModel dx="2058" dy="1188" grid="1" gridSize="10" guides="1" tooltips="1" connect="1" arrows="1" fold="1" page="1" pageScale="1" pageWidth="827" pageHeight="1169" math="0" shadow="0">
      <root>
        <mxCell id="0" />
        <mxCell id="1" parent="0" />
        <mxCell id="DIw15B_6P46cHO6aUXGj-1" value="" style="endArrow=none;html=1;rounded=0;strokeWidth=3;" parent="1" edge="1">
          <mxGeometry width="50" height="50" relative="1" as="geometry">
            <mxPoint x="160" y="140" as="sourcePoint" />
            <mxPoint x="550" y="140" as="targetPoint" />
          </mxGeometry>
        </mxCell>
        <mxCell id="DIw15B_6P46cHO6aUXGj-2" value="" style="endArrow=none;html=1;rounded=0;strokeWidth=2;" parent="1" edge="1">
          <mxGeometry width="50" height="50" relative="1" as="geometry">
            <mxPoint x="160" y="180" as="sourcePoint" />
            <mxPoint x="550" y="180" as="targetPoint" />
          </mxGeometry>
        </mxCell>
        <mxCell id="DIw15B_6P46cHO6aUXGj-3" value="&lt;b&gt;&lt;font style=&quot;font-size: 19px;&quot;&gt;层数&lt;/font&gt;&lt;/b&gt;" style="text;html=1;align=center;verticalAlign=middle;resizable=0;points=[];autosize=1;strokeColor=none;fillColor=none;" parent="1" vertex="1">
          <mxGeometry x="210" y="140" width="60" height="40" as="geometry" />
        </mxCell>
        <mxCell id="DIw15B_6P46cHO6aUXGj-5" value="&lt;span style=&quot;font-size: 19px;&quot;&gt;&lt;b&gt;模块名称&lt;/b&gt;&lt;/span&gt;" style="text;html=1;align=center;verticalAlign=middle;resizable=0;points=[];autosize=1;strokeColor=none;fillColor=none;" parent="1" vertex="1">
          <mxGeometry x="415" y="140" width="100" height="40" as="geometry" />
        </mxCell>
        <mxCell id="DIw15B_6P46cHO6aUXGj-7" value="&lt;b&gt;&lt;font style=&quot;font-size: 13px;&quot;&gt;0&lt;/font&gt;&lt;/b&gt;" style="text;html=1;align=center;verticalAlign=middle;resizable=0;points=[];autosize=1;strokeColor=none;fillColor=none;strokeWidth=1;" parent="1" vertex="1">
          <mxGeometry x="225" y="198" width="30" height="30" as="geometry" />
        </mxCell>
        <mxCell id="DIw15B_6P46cHO6aUXGj-8" value="&lt;font style=&quot;font-size: 13px;&quot;&gt;&lt;b&gt;1&lt;/b&gt;&lt;/font&gt;" style="text;html=1;align=center;verticalAlign=middle;resizable=0;points=[];autosize=1;strokeColor=none;fillColor=none;strokeWidth=1;" parent="1" vertex="1">
          <mxGeometry x="225" y="231" width="30" height="30" as="geometry" />
        </mxCell>
        <mxCell id="DIw15B_6P46cHO6aUXGj-9" value="&lt;font style=&quot;font-size: 13px;&quot;&gt;&lt;b&gt;2&lt;/b&gt;&lt;/font&gt;" style="text;html=1;align=center;verticalAlign=middle;resizable=0;points=[];autosize=1;strokeColor=none;fillColor=none;strokeWidth=1;" parent="1" vertex="1">
          <mxGeometry x="225" y="264" width="30" height="30" as="geometry" />
        </mxCell>
        <mxCell id="DIw15B_6P46cHO6aUXGj-10" value="&lt;font style=&quot;font-size: 13px;&quot;&gt;&lt;b&gt;3&lt;/b&gt;&lt;/font&gt;" style="text;html=1;align=center;verticalAlign=middle;resizable=0;points=[];autosize=1;strokeColor=none;fillColor=none;strokeWidth=1;" parent="1" vertex="1">
          <mxGeometry x="225" y="297" width="30" height="30" as="geometry" />
        </mxCell>
        <mxCell id="DIw15B_6P46cHO6aUXGj-11" value="&lt;font style=&quot;font-size: 13px;&quot;&gt;&lt;b&gt;4&lt;/b&gt;&lt;/font&gt;" style="text;html=1;align=center;verticalAlign=middle;resizable=0;points=[];autosize=1;strokeColor=none;fillColor=none;strokeWidth=1;" parent="1" vertex="1">
          <mxGeometry x="225" y="330" width="30" height="30" as="geometry" />
        </mxCell>
        <mxCell id="DIw15B_6P46cHO6aUXGj-12" value="&lt;font style=&quot;font-size: 13px;&quot;&gt;&lt;b&gt;5&lt;/b&gt;&lt;/font&gt;" style="text;html=1;align=center;verticalAlign=middle;resizable=0;points=[];autosize=1;strokeColor=none;fillColor=none;" parent="1" vertex="1">
          <mxGeometry x="225" y="362" width="30" height="30" as="geometry" />
        </mxCell>
        <mxCell id="QXZyrUOX6K9OUCv5Mazl-2" value="&lt;b&gt;&lt;font style=&quot;font-size: 19px;&quot;&gt;参数量&lt;/font&gt;&lt;/b&gt;" style="text;html=1;align=center;verticalAlign=middle;resizable=0;points=[];autosize=1;strokeColor=none;fillColor=none;" parent="1" vertex="1">
          <mxGeometry x="300" y="140" width="80" height="40" as="geometry" />
        </mxCell>
        <mxCell id="QXZyrUOX6K9OUCv5Mazl-4" value="&lt;font style=&quot;font-size: 13px;&quot;&gt;&lt;b&gt;6&lt;/b&gt;&lt;/font&gt;" style="text;html=1;align=center;verticalAlign=middle;resizable=0;points=[];autosize=1;strokeColor=none;fillColor=none;" parent="1" vertex="1">
          <mxGeometry x="225" y="395" width="30" height="30" as="geometry" />
        </mxCell>
        <mxCell id="QXZyrUOX6K9OUCv5Mazl-5" value="&lt;font style=&quot;font-size: 13px;&quot;&gt;&lt;b&gt;7&lt;/b&gt;&lt;/font&gt;" style="text;html=1;align=center;verticalAlign=middle;resizable=0;points=[];autosize=1;strokeColor=none;fillColor=none;" parent="1" vertex="1">
          <mxGeometry x="225" y="428" width="30" height="30" as="geometry" />
        </mxCell>
        <mxCell id="QXZyrUOX6K9OUCv5Mazl-6" value="&lt;font style=&quot;font-size: 13px;&quot;&gt;&lt;b&gt;8&lt;/b&gt;&lt;/font&gt;" style="text;html=1;align=center;verticalAlign=middle;resizable=0;points=[];autosize=1;strokeColor=none;fillColor=none;" parent="1" vertex="1">
          <mxGeometry x="225" y="461" width="30" height="30" as="geometry" />
        </mxCell>
        <mxCell id="QXZyrUOX6K9OUCv5Mazl-8" value="&lt;font style=&quot;font-size: 13px;&quot;&gt;&lt;b&gt;9&lt;/b&gt;&lt;/font&gt;" style="text;html=1;align=center;verticalAlign=middle;resizable=0;points=[];autosize=1;strokeColor=none;fillColor=none;" parent="1" vertex="1">
          <mxGeometry x="225" y="494" width="30" height="30" as="geometry" />
        </mxCell>
        <mxCell id="QXZyrUOX6K9OUCv5Mazl-10" value="&lt;font style=&quot;font-size: 13px;&quot;&gt;&lt;b&gt;11&lt;/b&gt;&lt;/font&gt;" style="text;html=1;align=center;verticalAlign=middle;resizable=0;points=[];autosize=1;strokeColor=none;fillColor=none;" parent="1" vertex="1">
          <mxGeometry x="220" y="560" width="40" height="30" as="geometry" />
        </mxCell>
        <mxCell id="QXZyrUOX6K9OUCv5Mazl-12" value="&lt;font style=&quot;font-size: 13px;&quot;&gt;&lt;b&gt;12&lt;/b&gt;&lt;/font&gt;" style="text;html=1;align=center;verticalAlign=middle;resizable=0;points=[];autosize=1;strokeColor=none;fillColor=none;" parent="1" vertex="1">
          <mxGeometry x="220" y="593" width="40" height="30" as="geometry" />
        </mxCell>
        <mxCell id="QXZyrUOX6K9OUCv5Mazl-14" value="&lt;font style=&quot;font-size: 13px;&quot;&gt;&lt;b&gt;14&lt;/b&gt;&lt;/font&gt;" style="text;html=1;align=center;verticalAlign=middle;resizable=0;points=[];autosize=1;strokeColor=none;fillColor=none;" parent="1" vertex="1">
          <mxGeometry x="220" y="659" width="40" height="30" as="geometry" />
        </mxCell>
        <mxCell id="QXZyrUOX6K9OUCv5Mazl-16" value="&lt;font style=&quot;font-size: 13px;&quot;&gt;&lt;b&gt;15&lt;/b&gt;&lt;/font&gt;" style="text;html=1;align=center;verticalAlign=middle;resizable=0;points=[];autosize=1;strokeColor=none;fillColor=none;" parent="1" vertex="1">
          <mxGeometry x="220" y="691" width="40" height="30" as="geometry" />
        </mxCell>
        <mxCell id="QXZyrUOX6K9OUCv5Mazl-20" value="&lt;font style=&quot;font-size: 13px;&quot;&gt;&lt;b&gt;10&lt;/b&gt;&lt;/font&gt;" style="text;html=1;align=center;verticalAlign=middle;resizable=0;points=[];autosize=1;strokeColor=none;fillColor=none;" parent="1" vertex="1">
          <mxGeometry x="220" y="527" width="40" height="30" as="geometry" />
        </mxCell>
        <mxCell id="QXZyrUOX6K9OUCv5Mazl-21" value="&lt;font style=&quot;font-size: 13px;&quot;&gt;&lt;b&gt;16&lt;/b&gt;&lt;/font&gt;" style="text;html=1;align=center;verticalAlign=middle;resizable=0;points=[];autosize=1;strokeColor=none;fillColor=none;" parent="1" vertex="1">
          <mxGeometry x="220" y="724" width="40" height="30" as="geometry" />
        </mxCell>
        <mxCell id="QXZyrUOX6K9OUCv5Mazl-22" value="&lt;font style=&quot;font-size: 13px;&quot;&gt;&lt;b&gt;13&lt;/b&gt;&lt;/font&gt;" style="text;html=1;align=center;verticalAlign=middle;resizable=0;points=[];autosize=1;strokeColor=none;fillColor=none;" parent="1" vertex="1">
          <mxGeometry x="220" y="626" width="40" height="30" as="geometry" />
        </mxCell>
        <mxCell id="QXZyrUOX6K9OUCv5Mazl-23" value="&lt;font style=&quot;font-size: 13px;&quot;&gt;&lt;b&gt;17&lt;/b&gt;&lt;/font&gt;" style="text;html=1;align=center;verticalAlign=middle;resizable=0;points=[];autosize=1;strokeColor=none;fillColor=none;" parent="1" vertex="1">
          <mxGeometry x="220" y="757" width="40" height="30" as="geometry" />
        </mxCell>
        <mxCell id="QXZyrUOX6K9OUCv5Mazl-24" value="&lt;font style=&quot;font-size: 13px;&quot;&gt;&lt;b&gt;18&lt;/b&gt;&lt;/font&gt;" style="text;html=1;align=center;verticalAlign=middle;resizable=0;points=[];autosize=1;strokeColor=none;fillColor=none;" parent="1" vertex="1">
          <mxGeometry x="220" y="790" width="40" height="30" as="geometry" />
        </mxCell>
        <mxCell id="QXZyrUOX6K9OUCv5Mazl-25" value="&lt;font style=&quot;font-size: 13px;&quot;&gt;&lt;b&gt;19&lt;/b&gt;&lt;/font&gt;" style="text;html=1;align=center;verticalAlign=middle;resizable=0;points=[];autosize=1;strokeColor=none;fillColor=none;" parent="1" vertex="1">
          <mxGeometry x="220" y="823" width="40" height="30" as="geometry" />
        </mxCell>
        <mxCell id="QXZyrUOX6K9OUCv5Mazl-26" value="&lt;span style=&quot;font-size: 13px;&quot;&gt;&lt;b&gt;20&lt;/b&gt;&lt;/span&gt;" style="text;html=1;align=center;verticalAlign=middle;resizable=0;points=[];autosize=1;strokeColor=none;fillColor=none;" parent="1" vertex="1">
          <mxGeometry x="220" y="856" width="40" height="30" as="geometry" />
        </mxCell>
        <mxCell id="QXZyrUOX6K9OUCv5Mazl-27" value="&lt;font style=&quot;font-size: 13px;&quot;&gt;&lt;b&gt;21&lt;/b&gt;&lt;/font&gt;" style="text;html=1;align=center;verticalAlign=middle;resizable=0;points=[];autosize=1;strokeColor=none;fillColor=none;" parent="1" vertex="1">
          <mxGeometry x="220" y="890" width="40" height="30" as="geometry" />
        </mxCell>
        <mxCell id="QXZyrUOX6K9OUCv5Mazl-28" value="&lt;b&gt;&lt;font style=&quot;font-size: 13px;&quot;&gt;1856&lt;/font&gt;&lt;/b&gt;" style="text;html=1;align=center;verticalAlign=middle;resizable=0;points=[];autosize=1;strokeColor=none;fillColor=none;strokeWidth=1;" parent="1" vertex="1">
          <mxGeometry x="315" y="198" width="50" height="30" as="geometry" />
        </mxCell>
        <mxCell id="QXZyrUOX6K9OUCv5Mazl-29" value="&lt;b&gt;&lt;font style=&quot;font-size: 13px;&quot;&gt;73984&lt;/font&gt;&lt;/b&gt;" style="text;html=1;align=center;verticalAlign=middle;resizable=0;points=[];autosize=1;strokeColor=none;fillColor=none;strokeWidth=1;" parent="1" vertex="1">
          <mxGeometry x="310" y="228" width="60" height="30" as="geometry" />
        </mxCell>
        <mxCell id="QXZyrUOX6K9OUCv5Mazl-32" value="&lt;b&gt;&lt;font style=&quot;font-size: 13px;&quot;&gt;114688&lt;/font&gt;&lt;/b&gt;" style="text;html=1;align=center;verticalAlign=middle;resizable=0;points=[];autosize=1;strokeColor=none;fillColor=none;strokeWidth=1;" parent="1" vertex="1">
          <mxGeometry x="305" y="264" width="70" height="30" as="geometry" />
        </mxCell>
        <mxCell id="QXZyrUOX6K9OUCv5Mazl-33" value="&lt;b&gt;&lt;font style=&quot;font-size: 13px;&quot;&gt;295624&lt;/font&gt;&lt;/b&gt;" style="text;html=1;align=center;verticalAlign=middle;resizable=0;points=[];autosize=1;strokeColor=none;fillColor=none;strokeWidth=1;" parent="1" vertex="1">
          <mxGeometry x="305" y="297" width="70" height="30" as="geometry" />
        </mxCell>
        <mxCell id="QXZyrUOX6K9OUCv5Mazl-34" value="&lt;b&gt;&lt;font style=&quot;font-size: 13px;&quot;&gt;780288&lt;/font&gt;&lt;/b&gt;" style="text;html=1;align=center;verticalAlign=middle;resizable=0;points=[];autosize=1;strokeColor=none;fillColor=none;strokeWidth=1;" parent="1" vertex="1">
          <mxGeometry x="305" y="330" width="70" height="30" as="geometry" />
        </mxCell>
        <mxCell id="QXZyrUOX6K9OUCv5Mazl-35" value="&lt;b&gt;&lt;font style=&quot;font-size: 13px;&quot;&gt;1180672&lt;/font&gt;&lt;/b&gt;" style="text;html=1;align=center;verticalAlign=middle;resizable=0;points=[];autosize=1;strokeColor=none;fillColor=none;strokeWidth=1;" parent="1" vertex="1">
          <mxGeometry x="305" y="362" width="70" height="30" as="geometry" />
        </mxCell>
        <mxCell id="QXZyrUOX6K9OUCv5Mazl-36" value="&lt;b&gt;&lt;font style=&quot;font-size: 13px;&quot;&gt;3112960&lt;/font&gt;&lt;/b&gt;" style="text;html=1;align=center;verticalAlign=middle;resizable=0;points=[];autosize=1;strokeColor=none;fillColor=none;strokeWidth=1;" parent="1" vertex="1">
          <mxGeometry x="305" y="395" width="70" height="30" as="geometry" />
        </mxCell>
        <mxCell id="QXZyrUOX6K9OUCv5Mazl-37" value="&lt;b&gt;&lt;font style=&quot;font-size: 13px;&quot;&gt;2360320&lt;/font&gt;&lt;/b&gt;" style="text;html=1;align=center;verticalAlign=middle;resizable=0;points=[];autosize=1;strokeColor=none;fillColor=none;strokeWidth=1;" parent="1" vertex="1">
          <mxGeometry x="305" y="428" width="70" height="30" as="geometry" />
        </mxCell>
        <mxCell id="QXZyrUOX6K9OUCv5Mazl-38" value="&lt;b&gt;&lt;font style=&quot;font-size: 13px;&quot;&gt;1819648&lt;/font&gt;&lt;/b&gt;" style="text;html=1;align=center;verticalAlign=middle;resizable=0;points=[];autosize=1;strokeColor=none;fillColor=none;strokeWidth=1;" parent="1" vertex="1">
          <mxGeometry x="305" y="461" width="70" height="30" as="geometry" />
        </mxCell>
        <mxCell id="QXZyrUOX6K9OUCv5Mazl-39" value="&lt;b&gt;&lt;font style=&quot;font-size: 13px;&quot;&gt;656896&lt;/font&gt;&lt;/b&gt;" style="text;html=1;align=center;verticalAlign=middle;resizable=0;points=[];autosize=1;strokeColor=none;fillColor=none;strokeWidth=1;" parent="1" vertex="1">
          <mxGeometry x="305" y="494" width="70" height="30" as="geometry" />
        </mxCell>
        <mxCell id="QXZyrUOX6K9OUCv5Mazl-40" value="&lt;b&gt;&lt;font style=&quot;font-size: 13px;&quot;&gt;0&lt;/font&gt;&lt;/b&gt;" style="text;html=1;align=center;verticalAlign=middle;resizable=0;points=[];autosize=1;strokeColor=none;fillColor=none;strokeWidth=1;" parent="1" vertex="1">
          <mxGeometry x="325" y="527" width="30" height="30" as="geometry" />
        </mxCell>
        <mxCell id="QXZyrUOX6K9OUCv5Mazl-42" value="&lt;b&gt;&lt;font style=&quot;font-size: 13px;&quot;&gt;0&lt;/font&gt;&lt;/b&gt;" style="text;html=1;align=center;verticalAlign=middle;resizable=0;points=[];autosize=1;strokeColor=none;fillColor=none;strokeWidth=1;" parent="1" vertex="1">
          <mxGeometry x="325" y="560" width="30" height="30" as="geometry" />
        </mxCell>
        <mxCell id="QXZyrUOX6K9OUCv5Mazl-43" value="&lt;b&gt;&lt;font style=&quot;font-size: 13px;&quot;&gt;2081792&lt;/font&gt;&lt;/b&gt;" style="text;html=1;align=center;verticalAlign=middle;resizable=0;points=[];autosize=1;strokeColor=none;fillColor=none;strokeWidth=1;" parent="1" vertex="1">
          <mxGeometry x="305" y="593" width="70" height="30" as="geometry" />
        </mxCell>
        <mxCell id="QXZyrUOX6K9OUCv5Mazl-44" value="&lt;b&gt;&lt;font style=&quot;font-size: 13px;&quot;&gt;0&lt;/font&gt;&lt;/b&gt;" style="text;html=1;align=center;verticalAlign=middle;resizable=0;points=[];autosize=1;strokeColor=none;fillColor=none;strokeWidth=1;" parent="1" vertex="1">
          <mxGeometry x="325" y="626" width="30" height="30" as="geometry" />
        </mxCell>
        <mxCell id="QXZyrUOX6K9OUCv5Mazl-45" value="&lt;b&gt;&lt;font style=&quot;font-size: 13px;&quot;&gt;0&lt;/font&gt;&lt;/b&gt;" style="text;html=1;align=center;verticalAlign=middle;resizable=0;points=[];autosize=1;strokeColor=none;fillColor=none;strokeWidth=1;" parent="1" vertex="1">
          <mxGeometry x="325" y="659" width="30" height="30" as="geometry" />
        </mxCell>
        <mxCell id="QXZyrUOX6K9OUCv5Mazl-46" value="&lt;b&gt;&lt;font style=&quot;font-size: 13px;&quot;&gt;587264&lt;/font&gt;&lt;/b&gt;" style="text;html=1;align=center;verticalAlign=middle;resizable=0;points=[];autosize=1;strokeColor=none;fillColor=none;strokeWidth=1;" parent="1" vertex="1">
          <mxGeometry x="305" y="691" width="70" height="30" as="geometry" />
        </mxCell>
        <mxCell id="QXZyrUOX6K9OUCv5Mazl-47" value="&lt;b&gt;&lt;font style=&quot;font-size: 13px;&quot;&gt;590336&lt;/font&gt;&lt;/b&gt;" style="text;html=1;align=center;verticalAlign=middle;resizable=0;points=[];autosize=1;strokeColor=none;fillColor=none;strokeWidth=1;" parent="1" vertex="1">
          <mxGeometry x="305" y="724" width="70" height="30" as="geometry" />
        </mxCell>
        <mxCell id="QXZyrUOX6K9OUCv5Mazl-48" value="&lt;b&gt;&lt;font style=&quot;font-size: 13px;&quot;&gt;0&lt;/font&gt;&lt;/b&gt;" style="text;html=1;align=center;verticalAlign=middle;resizable=0;points=[];autosize=1;strokeColor=none;fillColor=none;strokeWidth=1;" parent="1" vertex="1">
          <mxGeometry x="325" y="757" width="30" height="30" as="geometry" />
        </mxCell>
        <mxCell id="QXZyrUOX6K9OUCv5Mazl-49" value="&lt;b&gt;&lt;font style=&quot;font-size: 13px;&quot;&gt;1950720&lt;/font&gt;&lt;/b&gt;" style="text;html=1;align=center;verticalAlign=middle;resizable=0;points=[];autosize=1;strokeColor=none;fillColor=none;strokeWidth=1;" parent="1" vertex="1">
          <mxGeometry x="305" y="790" width="70" height="30" as="geometry" />
        </mxCell>
        <mxCell id="QXZyrUOX6K9OUCv5Mazl-50" value="&lt;b&gt;&lt;font style=&quot;font-size: 13px;&quot;&gt;2360320&lt;/font&gt;&lt;/b&gt;" style="text;html=1;align=center;verticalAlign=middle;resizable=0;points=[];autosize=1;strokeColor=none;fillColor=none;strokeWidth=1;" parent="1" vertex="1">
          <mxGeometry x="305" y="823" width="70" height="30" as="geometry" />
        </mxCell>
        <mxCell id="QXZyrUOX6K9OUCv5Mazl-51" value="&lt;b&gt;&lt;font style=&quot;font-size: 13px;&quot;&gt;0&lt;/font&gt;&lt;/b&gt;" style="text;html=1;align=center;verticalAlign=middle;resizable=0;points=[];autosize=1;strokeColor=none;fillColor=none;strokeWidth=1;" parent="1" vertex="1">
          <mxGeometry x="325" y="856" width="30" height="30" as="geometry" />
        </mxCell>
        <mxCell id="QXZyrUOX6K9OUCv5Mazl-52" value="&lt;b&gt;&lt;font style=&quot;font-size: 13px;&quot;&gt;2081792&lt;/font&gt;&lt;/b&gt;" style="text;html=1;align=center;verticalAlign=middle;resizable=0;points=[];autosize=1;strokeColor=none;fillColor=none;strokeWidth=1;" parent="1" vertex="1">
          <mxGeometry x="305" y="890" width="70" height="30" as="geometry" />
        </mxCell>
        <mxCell id="QXZyrUOX6K9OUCv5Mazl-53" value="" style="endArrow=none;html=1;rounded=0;strokeWidth=3;" parent="1" edge="1">
          <mxGeometry width="50" height="50" relative="1" as="geometry">
            <mxPoint x="159" y="960" as="sourcePoint" />
            <mxPoint x="549" y="960" as="targetPoint" />
          </mxGeometry>
        </mxCell>
        <mxCell id="QXZyrUOX6K9OUCv5Mazl-54" value="&lt;font style=&quot;font-size: 13px;&quot;&gt;&lt;b&gt;22&lt;/b&gt;&lt;/font&gt;" style="text;html=1;align=center;verticalAlign=middle;resizable=0;points=[];autosize=1;strokeColor=none;fillColor=none;" parent="1" vertex="1">
          <mxGeometry x="220" y="920" width="40" height="30" as="geometry" />
        </mxCell>
        <mxCell id="QXZyrUOX6K9OUCv5Mazl-55" value="&lt;font style=&quot;font-size: 13px;&quot;&gt;&lt;b&gt;5587426&lt;/b&gt;&lt;/font&gt;" style="text;html=1;align=center;verticalAlign=middle;resizable=0;points=[];autosize=1;strokeColor=none;fillColor=none;" parent="1" vertex="1">
          <mxGeometry x="305" y="920" width="70" height="30" as="geometry" />
        </mxCell>
        <mxCell id="QXZyrUOX6K9OUCv5Mazl-56" value="&lt;b&gt;&lt;font style=&quot;font-size: 13px;&quot;&gt;CBS&lt;/font&gt;&lt;/b&gt;" style="text;html=1;align=center;verticalAlign=middle;resizable=0;points=[];autosize=1;strokeColor=none;fillColor=none;strokeWidth=1;" parent="1" vertex="1">
          <mxGeometry x="440" y="198" width="50" height="30" as="geometry" />
        </mxCell>
        <mxCell id="QXZyrUOX6K9OUCv5Mazl-57" value="&lt;span style=&quot;font-size: 13px;&quot;&gt;&lt;b&gt;CBS&lt;/b&gt;&lt;/span&gt;" style="text;html=1;align=center;verticalAlign=middle;resizable=0;points=[];autosize=1;strokeColor=none;fillColor=none;strokeWidth=1;" parent="1" vertex="1">
          <mxGeometry x="440" y="228" width="50" height="30" as="geometry" />
        </mxCell>
        <mxCell id="QXZyrUOX6K9OUCv5Mazl-58" value="&lt;b&gt;&lt;font style=&quot;font-size: 13px;&quot;&gt;Faster-C2f&lt;/font&gt;&lt;/b&gt;" style="text;html=1;align=center;verticalAlign=middle;resizable=0;points=[];autosize=1;strokeColor=none;fillColor=none;strokeWidth=1;" parent="1" vertex="1">
          <mxGeometry x="420" y="264" width="90" height="30" as="geometry" />
        </mxCell>
        <mxCell id="QXZyrUOX6K9OUCv5Mazl-59" value="&lt;b style=&quot;border-color: var(--border-color); font-size: 13px;&quot;&gt;CBS&lt;/b&gt;" style="text;html=1;align=center;verticalAlign=middle;resizable=0;points=[];autosize=1;strokeColor=none;fillColor=none;strokeWidth=1;" parent="1" vertex="1">
          <mxGeometry x="440" y="297" width="50" height="30" as="geometry" />
        </mxCell>
        <mxCell id="QXZyrUOX6K9OUCv5Mazl-60" value="&lt;b style=&quot;border-color: var(--border-color);&quot;&gt;&lt;font style=&quot;border-color: var(--border-color); font-size: 13px;&quot;&gt;Faster-C2f&lt;/font&gt;&lt;/b&gt;" style="text;html=1;align=center;verticalAlign=middle;resizable=0;points=[];autosize=1;strokeColor=none;fillColor=none;strokeWidth=1;" parent="1" vertex="1">
          <mxGeometry x="420" y="330" width="90" height="30" as="geometry" />
        </mxCell>
        <mxCell id="QXZyrUOX6K9OUCv5Mazl-61" value="&lt;b style=&quot;border-color: var(--border-color); font-size: 13px;&quot;&gt;CBS&lt;/b&gt;" style="text;html=1;align=center;verticalAlign=middle;resizable=0;points=[];autosize=1;strokeColor=none;fillColor=none;strokeWidth=1;" parent="1" vertex="1">
          <mxGeometry x="440" y="362" width="50" height="30" as="geometry" />
        </mxCell>
        <mxCell id="QXZyrUOX6K9OUCv5Mazl-62" value="&lt;b style=&quot;border-color: var(--border-color);&quot;&gt;&lt;font style=&quot;border-color: var(--border-color); font-size: 13px;&quot;&gt;Faster-C2f&lt;/font&gt;&lt;/b&gt;" style="text;html=1;align=center;verticalAlign=middle;resizable=0;points=[];autosize=1;strokeColor=none;fillColor=none;strokeWidth=1;" parent="1" vertex="1">
          <mxGeometry x="420" y="395" width="90" height="30" as="geometry" />
        </mxCell>
        <mxCell id="QXZyrUOX6K9OUCv5Mazl-63" value="&lt;b style=&quot;border-color: var(--border-color); font-size: 13px;&quot;&gt;CBS&lt;/b&gt;" style="text;html=1;align=center;verticalAlign=middle;resizable=0;points=[];autosize=1;strokeColor=none;fillColor=none;strokeWidth=1;" parent="1" vertex="1">
          <mxGeometry x="440" y="428" width="50" height="30" as="geometry" />
        </mxCell>
        <mxCell id="QXZyrUOX6K9OUCv5Mazl-64" value="&lt;b style=&quot;border-color: var(--border-color);&quot;&gt;&lt;font style=&quot;border-color: var(--border-color); font-size: 13px;&quot;&gt;Faster-C2f&lt;/font&gt;&lt;/b&gt;" style="text;html=1;align=center;verticalAlign=middle;resizable=0;points=[];autosize=1;strokeColor=none;fillColor=none;strokeWidth=1;" parent="1" vertex="1">
          <mxGeometry x="420" y="461" width="90" height="30" as="geometry" />
        </mxCell>
        <mxCell id="QXZyrUOX6K9OUCv5Mazl-65" value="&lt;span style=&quot;font-size: 13px;&quot;&gt;&lt;b&gt;SPPF&lt;/b&gt;&lt;/span&gt;" style="text;html=1;align=center;verticalAlign=middle;resizable=0;points=[];autosize=1;strokeColor=none;fillColor=none;strokeWidth=1;" parent="1" vertex="1">
          <mxGeometry x="435" y="494" width="60" height="30" as="geometry" />
        </mxCell>
        <mxCell id="QXZyrUOX6K9OUCv5Mazl-66" value="&lt;b&gt;&lt;font style=&quot;font-size: 13px;&quot;&gt;Upsample&lt;/font&gt;&lt;/b&gt;" style="text;html=1;align=center;verticalAlign=middle;resizable=0;points=[];autosize=1;strokeColor=none;fillColor=none;strokeWidth=1;" parent="1" vertex="1">
          <mxGeometry x="420" y="527" width="90" height="30" as="geometry" />
        </mxCell>
        <mxCell id="QXZyrUOX6K9OUCv5Mazl-67" value="&lt;b&gt;&lt;font style=&quot;font-size: 13px;&quot;&gt;Concat&lt;/font&gt;&lt;/b&gt;" style="text;html=1;align=center;verticalAlign=middle;resizable=0;points=[];autosize=1;strokeColor=none;fillColor=none;strokeWidth=1;" parent="1" vertex="1">
          <mxGeometry x="430" y="560" width="70" height="30" as="geometry" />
        </mxCell>
        <mxCell id="QXZyrUOX6K9OUCv5Mazl-68" value="&lt;b style=&quot;border-color: var(--border-color);&quot;&gt;&lt;font style=&quot;border-color: var(--border-color); font-size: 13px;&quot;&gt;Faster-C2f&lt;/font&gt;&lt;/b&gt;" style="text;html=1;align=center;verticalAlign=middle;resizable=0;points=[];autosize=1;strokeColor=none;fillColor=none;strokeWidth=1;" parent="1" vertex="1">
          <mxGeometry x="420" y="593" width="90" height="30" as="geometry" />
        </mxCell>
        <mxCell id="QXZyrUOX6K9OUCv5Mazl-69" value="&lt;b style=&quot;border-color: var(--border-color);&quot;&gt;&lt;font style=&quot;border-color: var(--border-color); font-size: 13px;&quot;&gt;Upsample&lt;/font&gt;&lt;/b&gt;" style="text;html=1;align=center;verticalAlign=middle;resizable=0;points=[];autosize=1;strokeColor=none;fillColor=none;strokeWidth=1;" parent="1" vertex="1">
          <mxGeometry x="420" y="626" width="90" height="30" as="geometry" />
        </mxCell>
        <mxCell id="QXZyrUOX6K9OUCv5Mazl-70" value="&lt;b style=&quot;border-color: var(--border-color);&quot;&gt;&lt;font style=&quot;border-color: var(--border-color); font-size: 13px;&quot;&gt;Concat&lt;/font&gt;&lt;/b&gt;" style="text;html=1;align=center;verticalAlign=middle;resizable=0;points=[];autosize=1;strokeColor=none;fillColor=none;strokeWidth=1;" parent="1" vertex="1">
          <mxGeometry x="430" y="659" width="70" height="30" as="geometry" />
        </mxCell>
        <mxCell id="QXZyrUOX6K9OUCv5Mazl-71" value="&lt;b style=&quot;border-color: var(--border-color);&quot;&gt;&lt;font style=&quot;border-color: var(--border-color); font-size: 13px;&quot;&gt;Faster-C2f&lt;/font&gt;&lt;/b&gt;" style="text;html=1;align=center;verticalAlign=middle;resizable=0;points=[];autosize=1;strokeColor=none;fillColor=none;strokeWidth=1;" parent="1" vertex="1">
          <mxGeometry x="420" y="691" width="90" height="30" as="geometry" />
        </mxCell>
        <mxCell id="QXZyrUOX6K9OUCv5Mazl-72" value="&lt;b style=&quot;border-color: var(--border-color); font-size: 13px;&quot;&gt;CBS&lt;/b&gt;" style="text;html=1;align=center;verticalAlign=middle;resizable=0;points=[];autosize=1;strokeColor=none;fillColor=none;strokeWidth=1;" parent="1" vertex="1">
          <mxGeometry x="440" y="724" width="50" height="30" as="geometry" />
        </mxCell>
        <mxCell id="QXZyrUOX6K9OUCv5Mazl-73" value="&lt;b&gt;&lt;font style=&quot;font-size: 13px;&quot;&gt;Concat&lt;/font&gt;&lt;/b&gt;" style="text;html=1;align=center;verticalAlign=middle;resizable=0;points=[];autosize=1;strokeColor=none;fillColor=none;strokeWidth=1;" parent="1" vertex="1">
          <mxGeometry x="430" y="757" width="70" height="30" as="geometry" />
        </mxCell>
        <mxCell id="QXZyrUOX6K9OUCv5Mazl-74" value="&lt;b style=&quot;border-color: var(--border-color);&quot;&gt;&lt;font style=&quot;border-color: var(--border-color); font-size: 13px;&quot;&gt;Faster-C2f&lt;/font&gt;&lt;/b&gt;" style="text;html=1;align=center;verticalAlign=middle;resizable=0;points=[];autosize=1;strokeColor=none;fillColor=none;strokeWidth=1;" parent="1" vertex="1">
          <mxGeometry x="420" y="790" width="90" height="30" as="geometry" />
        </mxCell>
        <mxCell id="QXZyrUOX6K9OUCv5Mazl-75" value="&lt;b style=&quot;border-color: var(--border-color); font-size: 13px;&quot;&gt;CBS&lt;/b&gt;" style="text;html=1;align=center;verticalAlign=middle;resizable=0;points=[];autosize=1;strokeColor=none;fillColor=none;strokeWidth=1;" parent="1" vertex="1">
          <mxGeometry x="440" y="823" width="50" height="30" as="geometry" />
        </mxCell>
        <mxCell id="QXZyrUOX6K9OUCv5Mazl-76" value="&lt;b&gt;&lt;font style=&quot;font-size: 13px;&quot;&gt;Concat&lt;/font&gt;&lt;/b&gt;" style="text;html=1;align=center;verticalAlign=middle;resizable=0;points=[];autosize=1;strokeColor=none;fillColor=none;strokeWidth=1;" parent="1" vertex="1">
          <mxGeometry x="430" y="856" width="70" height="30" as="geometry" />
        </mxCell>
        <mxCell id="QXZyrUOX6K9OUCv5Mazl-77" value="&lt;b style=&quot;border-color: var(--border-color);&quot;&gt;&lt;font style=&quot;border-color: var(--border-color); font-size: 13px;&quot;&gt;Faster-C2f&lt;/font&gt;&lt;/b&gt;" style="text;html=1;align=center;verticalAlign=middle;resizable=0;points=[];autosize=1;strokeColor=none;fillColor=none;strokeWidth=1;" parent="1" vertex="1">
          <mxGeometry x="420" y="890" width="90" height="30" as="geometry" />
        </mxCell>
        <mxCell id="QXZyrUOX6K9OUCv5Mazl-78" value="&lt;span style=&quot;font-size: 13px;&quot;&gt;&lt;b&gt;Detect&lt;/b&gt;&lt;/span&gt;" style="text;html=1;align=center;verticalAlign=middle;resizable=0;points=[];autosize=1;strokeColor=none;fillColor=none;" parent="1" vertex="1">
          <mxGeometry x="435" y="920" width="60" height="30" as="geometry" />
        </mxCell>
      </root>
    </mxGraphModel>
  </diagram>
</mxfile>
